<?xml version="1.0" encoding="utf-8"?>
<!-- Generator: Adobe Illustrator 25.4.1, SVG Export Plug-In . SVG Version: 6.00 Build 0)  -->
<svg version="1.1" id="Layer_1" xmlns="http://www.w3.org/2000/svg" xmlns:xlink="http://www.w3.org/1999/xlink" x="0px" y="0px"
	 viewBox="0 0 1920 1080" style="enable-background:new 0 0 1920 1080;" xml:space="preserve">
<style type="text/css">
	.st0{fill:#FFFFFF;}
</style>
<g>
	<path class="st0" d="M1210,599.99c0,63.34,0,126.68,0,190.01c-166.67,0-333.33,0-500,0c0-38,0-76.01,0-114.01
		c4.7,13.06,14.34,17.07,27.69,16.99c60.65-0.36,121.3-0.15,181.95-0.17c14.68-0.01,23.44-8.69,23.44-23.21
		c0.02-66.82,0.04-133.64-0.12-200.46c-0.01-2.46-1.29-5.54-3.02-7.29c-23.93-24.15-48.07-48.08-72.05-72.16
		c-2.54-2.55-5.09-3.64-8.74-3.62c-40.66,0.13-81.32,0.35-121.97-0.07c-13.23-0.14-22.58,4.18-27.19,16.98c0-37.65,0-75.29,0-112.97
		c166.55,0,333.09,0,500,0c0,78.3,0,156.64,0,234.98c-2.65-7.94-8.51-11-16.5-10.91c-5.33,0.06-10.65,0-15.98,0
		c-6.77,0-13.54,0-20.33,0c0,32.35,0,64.03,0,96.02c11.85,0,23.32-0.21,34.78,0.07C1200.19,610.37,1206.61,608.02,1210,599.99z
		 M1069.98,572.2c0,5.52,0,10.5,0,15.48c0,9.61,0,9.61-9.4,9.59c-5.92-0.02-6.38-0.46-6.39-6.69c-0.02-17.66-0.01-35.31-0.01-52.97
		c0-11.43,0-11.36,11.4-10.72c3.2,0.18,4.48,1.53,4.41,4.63c-0.09,3.92-0.02,7.83-0.02,12.12c3.57,0,6.38,0,9.19,0
		c2.76,0,5.51,0,8.54,0c0-5.68,0.22-10.5-0.05-15.3c-0.49-8.91-4.76-13.52-13.71-14.05c-7.8-0.46-15.67-0.46-23.47-0.01
		c-9.15,0.53-13.7,5.31-13.77,14.44c-0.18,22.32-0.19,44.64,0.01,66.96c0.08,9.27,5.04,14.02,14.38,14.33
		c7.15,0.24,14.32,0.2,21.48,0.03c10.08-0.24,14.94-5.09,15.12-15.24c0.18-10.66,0.06-21.32,0.02-31.98c0-0.93-0.34-1.85-0.51-2.71
		c-8.36,0-16.43,0-24.55,0c0,4.11,0,7.83,0,11.63C1065.15,571.89,1067.27,572.03,1069.98,572.2z M1143.19,557.16
		c0-2.44,0.02-4.26,0-6.08c-0.14-10.24-4.12-14.82-14.23-15.47c-5.96-0.38-12.01-0.31-17.96,0.2c-8.34,0.7-12.5,5.36-12.84,13.73
		c-0.18,4.49-0.08,9-0.05,13.5c0.09,11.06,4.75,15.76,15.85,15.98c3,0.06,6.01-0.11,9,0.08c6.11,0.38,4.26,5.26,3.94,8.35
		c-0.38,3.63,3.28,9.4-3.96,10.38c-6.14,0.83-7.4-0.38-7.66-6.44c-0.04-0.95-0.26-1.89-0.4-2.92c-5.48,0-10.72,0-15.89,0
		c-2.57,14.96,2.87,21.6,17.42,21.63c4.67,0.01,9.34,0.15,13.99-0.14c8.43-0.53,13.09-5.31,13.46-13.76
		c0.22-5.16,0.22-10.34,0-15.49c-0.36-8.51-4.92-13.09-13.5-13.66c-3.65-0.24-7.33-0.13-10.99-0.14c-2.77-0.01-4.45-1.09-4.41-4.12
		c0.04-3.67-0.37-7.39,0.19-10.97c0.23-1.48,2.33-3.57,3.83-3.8c6.66-1.03,7.51-0.11,7.79,6.56c0.03,0.79,0.19,1.57,0.32,2.6
		C1132.41,557.16,1137.49,557.16,1143.19,557.16z"/>
	<path d="M710,402.97c4.61-12.8,13.96-17.12,27.19-16.98c40.65,0.42,81.31,0.2,121.97,0.07c3.65-0.01,6.2,1.08,8.74,3.62
		c23.99,24.08,48.13,48.02,72.05,72.16c1.73,1.75,3.01,4.83,3.02,7.29c0.16,66.82,0.14,133.64,0.12,200.46
		c0,14.52-8.76,23.2-23.44,23.21c-60.65,0.02-121.3-0.19-181.95,0.17c-13.35,0.08-22.99-3.93-27.69-16.99
		C710,584.99,710,493.98,710,402.97z M932.57,607.64c-2.66,0-4.63,0-6.61,0c-32.31,0-64.64-0.8-96.91,0.36
		c-14.39,0.52-25.2-2.6-32.67-15.11c-1.71-2.87-4.32-3.55-7.62-3.53c-20.82,0.14-41.63,0.06-62.45,0.08c-1.75,0-3.5,0.19-5.04,0.28
		c-0.27,0.89-0.44,1.21-0.44,1.53c-0.03,26.81-0.12,53.62,0.01,80.44c0.03,6.55,4.46,10.38,11.51,10.38
		c62.78,0.04,125.56,0.03,188.34,0c7.66,0,11.69-3.98,11.85-11.69c0.14-6.83,0.04-13.66,0.04-20.48
		C932.57,636.1,932.57,622.3,932.57,607.64z M821.24,518.53c0,11.81,0.1,22.73-0.07,33.64c-0.05,3.01,0.81,4.81,3.52,6.34
		c12.34,6.92,24.58,14.01,36.77,21.18c2.43,1.43,4.3,1.59,6.83,0.1c12.17-7.2,24.43-14.27,36.76-21.2c2.69-1.51,3.63-3.26,3.6-6.3
		c-0.15-13.82-0.2-27.65,0.03-41.47c0.06-3.54-1.23-5.35-4.19-6.99c-10.33-5.74-20.8-11.3-30.65-17.79
		c-6.37-4.19-11.36-4.5-17.73-0.05c-7.41,5.18-15.63,9.21-24.19,14.13c0-12.1,0.14-23.23-0.14-34.35c-0.05-1.84-1.49-4.39-3.06-5.33
		c-12.42-7.44-24.98-14.65-37.63-21.68c-1.47-0.82-4.19-0.76-5.68,0.06c-12.51,6.94-24.84,14.23-37.31,21.24
		c-2.5,1.41-3.44,3.03-3.41,5.9c0.14,14.16,0.17,28.32-0.01,42.47c-0.04,3.16,1.21,4.71,3.79,6.17
		c11.89,6.69,23.78,13.41,35.45,20.47c3.38,2.04,5.79,1.8,9-0.15C801.97,529.42,811.24,524.27,821.24,518.53z M867.59,404.85
		c0,16.41-0.21,32.01,0.11,47.6c0.11,5.35,4.51,9.21,10.03,9.27c15.15,0.18,30.31,0.01,45.46-0.05c0.19,0,0.38-0.46,0.34-0.42
		C905.11,442.68,886.73,424.14,867.59,404.85z"/>
	<path d="M1210,599.99c-3.39,8.04-9.81,10.38-18.03,10.18c-11.46-0.28-22.93-0.07-34.78-0.07c0-31.99,0-63.67,0-96.02
		c6.79,0,13.56,0,20.33,0c5.33,0,10.65,0.06,15.98,0c7.99-0.09,13.85,2.96,16.5,10.91C1210,549.98,1210,574.99,1210,599.99z
		 M1174.48,597.28c4.48,0,8.75-0.09,13.01,0.03c3.35,0.09,4.9-1.23,4.74-4.71c-0.16-3.65-0.03-7.32-0.03-10.98
		c0-16.47-0.01-32.94,0-49.41c0-2.61,0.03-5.22-3.64-5.24c-4.61-0.03-9.22-0.01-14.09-0.01
		C1174.48,550.54,1174.48,573.58,1174.48,597.28z"/>
	<path d="M1069.98,572.2c-2.7-0.17-4.83-0.31-7.33-0.47c0-3.8,0-7.53,0-11.63c8.12,0,16.19,0,24.55,0c0.17,0.86,0.51,1.79,0.51,2.71
		c0.04,10.66,0.16,21.32-0.02,31.98c-0.17,10.15-5.04,15-15.12,15.24c-7.16,0.17-14.33,0.2-21.48-0.03
		c-9.35-0.31-14.3-5.06-14.38-14.33c-0.2-22.32-0.19-44.64-0.01-66.96c0.07-9.13,4.62-13.91,13.77-14.44
		c7.8-0.45,15.67-0.45,23.47,0.01c8.96,0.53,13.22,5.13,13.71,14.05c0.26,4.8,0.05,9.63,0.05,15.3c-3.02,0-5.78,0-8.54,0
		c-2.81,0-5.62,0-9.19,0c0-4.29-0.07-8.21,0.02-12.12c0.07-3.1-1.21-4.45-4.41-4.63c-11.39-0.64-11.4-0.71-11.4,10.72
		c0,17.66-0.01,35.31,0.01,52.97c0.01,6.22,0.47,6.67,6.39,6.69c9.4,0.03,9.4,0.03,9.4-9.59
		C1069.98,582.7,1069.98,577.72,1069.98,572.2z"/>
	<path d="M1143.19,557.16c-5.7,0-10.77,0-16.13,0c-0.13-1.02-0.28-1.81-0.32-2.6c-0.27-6.67-1.13-7.6-7.79-6.56
		c-1.5,0.23-3.6,2.32-3.83,3.8c-0.56,3.58-0.15,7.3-0.19,10.97c-0.04,3.03,1.64,4.11,4.41,4.12c3.67,0.01,7.34-0.1,10.99,0.14
		c8.58,0.57,13.14,5.15,13.5,13.66c0.22,5.16,0.22,10.34,0,15.49c-0.37,8.46-5.03,13.23-13.46,13.76
		c-4.65,0.29-9.33,0.15-13.99,0.14c-14.55-0.04-19.99-6.68-17.42-21.63c5.18,0,10.41,0,15.89,0c0.15,1.03,0.36,1.97,0.4,2.92
		c0.26,6.06,1.53,7.27,7.66,6.44c7.24-0.98,3.58-6.75,3.96-10.38c0.32-3.08,2.17-7.97-3.94-8.35c-2.99-0.18-6-0.02-9-0.08
		c-11.1-0.22-15.77-4.92-15.85-15.98c-0.04-4.5-0.14-9.01,0.05-13.5c0.34-8.37,4.51-13.03,12.84-13.73c5.95-0.5,12-0.57,17.96-0.2
		c10.11,0.64,14.1,5.22,14.23,15.47C1143.21,552.9,1143.19,554.71,1143.19,557.16z"/>
	<path class="st0" d="M932.57,607.64c0,14.66,0,28.46,0,42.26c0,6.83,0.11,13.66-0.04,20.48c-0.16,7.7-4.18,11.68-11.85,11.69
		c-62.78,0.03-125.56,0.03-188.34,0c-7.05,0-11.48-3.83-11.51-10.38c-0.12-26.81-0.03-53.62-0.01-80.44c0-0.32,0.18-0.63,0.44-1.53
		c1.54-0.09,3.29-0.28,5.04-0.28c20.82-0.02,41.63,0.05,62.45-0.08c3.3-0.02,5.91,0.66,7.62,3.53
		c7.47,12.51,18.29,15.63,32.67,15.11c32.26-1.16,64.6-0.36,96.91-0.36C927.94,607.64,929.91,607.64,932.57,607.64z M843.71,635.97
		c-3.19-8.54-8.2-12.28-16.52-12.61c-8.05-0.32-14.96,3.67-17.94,11.05c-3.49,8.64-3.78,17.59-0.32,26.32
		c3.63,9.19,13.47,13.46,22.61,10.14c1.68-0.61,3.23-1.55,4.85-2.34c-0.05,0.53-0.09,1.06-0.14,1.59c2.6,0.42,5.2,0.84,8.11,1.31
		c0-8.68,0-16.42,0-24.22c-6.24,0-12.14,0-18.12,0c0,2.8,0,5.24,0,7.86c2.78,0.22,5.35,0.42,8.29,0.66
		c-0.88,4.5-3.27,6.81-7.33,7.36c-3.96,0.53-6.98-1.1-8.45-4.75c-2.93-7.26-2.97-14.7,0.28-21.82c2.33-5.12,9.33-6.58,12.34-2.19
		C835.22,639.92,839.02,637.44,843.71,635.97z"/>
	<path class="st0" d="M821.24,518.53c-9.99,5.75-19.26,10.89-28.32,16.39c-3.22,1.95-5.62,2.2-9,0.15
		c-11.68-7.06-23.56-13.78-35.45-20.47c-2.58-1.45-3.83-3-3.79-6.17c0.18-14.16,0.15-28.31,0.01-42.47
		c-0.03-2.87,0.91-4.49,3.41-5.9c12.47-7.02,24.8-14.3,37.31-21.24c1.49-0.83,4.21-0.88,5.68-0.06
		c12.66,7.03,25.21,14.24,37.63,21.68c1.57,0.94,3.02,3.49,3.06,5.33c0.28,11.12,0.14,22.25,0.14,34.35
		c8.56-4.92,16.78-8.95,24.19-14.13c6.37-4.46,11.36-4.15,17.73,0.05c9.85,6.49,20.32,12.06,30.65,17.79
		c2.96,1.64,4.24,3.46,4.19,6.99c-0.22,13.82-0.18,27.65-0.03,41.47c0.03,3.04-0.91,4.79-3.6,6.3
		c-12.34,6.92-24.59,13.99-36.76,21.2c-2.53,1.5-4.4,1.33-6.83-0.1c-12.19-7.17-24.44-14.26-36.77-21.18
		c-2.72-1.52-3.57-3.33-3.52-6.34C821.34,541.26,821.24,530.34,821.24,518.53z M755.2,474.26c0,10.47-0.04,19.64,0.05,28.8
		c0.01,1.23,0.24,3.09,1.03,3.57c8.61,5.2,17.36,10.18,26.71,15.59c0-10.55,0.04-20.04-0.05-29.52c-0.01-1.02-0.42-2.55-1.15-2.98
		C773.26,484.63,764.65,479.71,755.2,474.26z M897.96,518.46c-9.3,5.38-17.76,10.23-26.16,15.18c-0.73,0.43-1.54,1.5-1.55,2.27
		c-0.1,9.87-0.07,19.74-0.07,30.45c9.31-5.37,17.79-10.19,26.16-15.2c0.87-0.52,1.54-2.13,1.55-3.24
		C898.02,538.46,897.96,528.99,897.96,518.46z M859.68,566.37c0-10.61,0.06-20.09-0.07-29.56c-0.02-1.12-0.74-2.72-1.64-3.25
		c-8.37-5-16.85-9.81-26.02-15.1c0,10.56-0.06,20.16,0.08,29.77c0.02,1.07,0.86,2.57,1.78,3.11
		C842.06,556.26,850.42,561.02,859.68,566.37z M760.63,465.14c9.02,5.21,17.31,10.05,25.68,14.74c0.96,0.54,2.67,0.72,3.56,0.23
		c8.51-4.73,16.92-9.65,26.1-14.94c-9.22-5.32-17.66-10.23-26.17-15.04c-0.73-0.41-2.05-0.51-2.74-0.13
		C778.42,454.86,769.83,459.85,760.63,465.14z M837.27,509.29c9,5.19,17.19,9.96,25.46,14.6c1,0.56,2.72,0.95,3.58,0.47
		c8.62-4.8,17.13-9.79,26.29-15.08c-9.1-5.25-17.41-10.12-25.82-14.82c-0.95-0.53-2.71-0.54-3.65-0.01
		C854.72,499.15,846.41,504.02,837.27,509.29z M821.23,474.42c-9.17,5.27-17.52,10-25.78,14.88c-0.84,0.5-1.71,1.78-1.72,2.72
		c-0.12,9.74-0.08,19.47-0.08,30.15c9.22-5.31,17.57-10.03,25.8-14.97c0.98-0.59,1.69-2.41,1.71-3.67
		C821.3,494.2,821.23,484.89,821.23,474.42z"/>
	<path class="st0" d="M867.59,404.85c19.14,19.29,37.52,37.83,55.95,56.4c0.04-0.05-0.15,0.42-0.34,0.42
		c-15.15,0.06-30.31,0.23-45.46,0.05c-5.52-0.06-9.92-3.92-10.03-9.27C867.38,436.86,867.59,421.26,867.59,404.85z"/>
	<path class="st0" d="M1174.48,597.28c0-23.7,0-46.74,0-70.31c4.87,0,9.48-0.02,14.09,0.01c3.66,0.02,3.64,2.63,3.64,5.24
		c-0.01,16.47,0,32.94,0,49.41c0,3.66-0.13,7.33,0.03,10.98c0.16,3.48-1.39,4.8-4.74,4.71
		C1183.22,597.19,1178.95,597.28,1174.48,597.28z"/>
	<path d="M843.71,635.97c-4.69,1.48-8.49,3.95-12.34-1.66c-3.02-4.39-10.01-2.93-12.34,2.19c-3.25,7.12-3.2,14.56-0.28,21.82
		c1.47,3.65,4.49,5.28,8.45,4.75c4.06-0.54,6.45-2.86,7.33-7.36c-2.93-0.23-5.5-0.44-8.29-0.66c0-2.62,0-5.06,0-7.86
		c5.99,0,11.88,0,18.12,0c0,7.8,0,15.55,0,24.22c-2.9-0.47-5.51-0.89-8.11-1.31c0.05-0.53,0.09-1.06,0.14-1.59
		c-1.61,0.79-3.17,1.73-4.85,2.34c-9.13,3.31-18.97-0.96-22.61-10.14c-3.45-8.73-3.16-17.68,0.32-26.32
		c2.98-7.39,9.88-11.37,17.94-11.05C835.5,623.69,840.52,627.43,843.71,635.97z"/>
	<path d="M755.2,474.26c9.45,5.46,18.07,10.37,26.58,15.45c0.73,0.44,1.14,1.96,1.15,2.98c0.09,9.49,0.05,18.97,0.05,29.52
		c-9.35-5.41-18.1-10.39-26.71-15.59c-0.79-0.48-1.02-2.34-1.03-3.57C755.16,493.89,755.2,484.73,755.2,474.26z"/>
	<path d="M897.96,518.46c0,10.53,0.05,20-0.07,29.46c-0.01,1.11-0.68,2.72-1.55,3.24c-8.37,5.01-16.85,9.83-26.16,15.2
		c0-10.72-0.04-20.59,0.07-30.45c0.01-0.78,0.81-1.84,1.55-2.27C880.2,528.69,888.66,523.84,897.96,518.46z"/>
	<path d="M859.68,566.37c-9.26-5.34-17.62-10.1-25.88-15.03c-0.91-0.54-1.76-2.05-1.78-3.11c-0.14-9.61-0.08-19.21-0.08-29.77
		c9.17,5.29,17.65,10.1,26.02,15.1c0.9,0.54,1.63,2.14,1.64,3.25C859.74,546.28,859.68,555.75,859.68,566.37z"/>
	<path d="M760.63,465.14c9.2-5.29,17.79-10.28,26.45-15.14c0.69-0.39,2.01-0.28,2.74,0.13c8.5,4.81,16.95,9.72,26.17,15.04
		c-9.19,5.29-17.59,10.21-26.1,14.94c-0.89,0.5-2.61,0.31-3.56-0.23C777.94,475.19,769.65,470.35,760.63,465.14z"/>
	<path d="M837.27,509.29c9.14-5.28,17.45-10.14,25.86-14.83c0.95-0.53,2.7-0.52,3.65,0.01c8.41,4.69,16.72,9.56,25.82,14.82
		c-9.16,5.3-17.67,10.29-26.29,15.08c-0.86,0.48-2.58,0.09-3.58-0.47C854.46,519.26,846.27,514.48,837.27,509.29z"/>
	<path d="M821.23,474.42c0,10.47,0.07,19.78-0.08,29.1c-0.02,1.26-0.73,3.08-1.71,3.67c-8.22,4.95-16.58,9.67-25.8,14.97
		c0-10.67-0.05-20.41,0.08-30.15c0.01-0.93,0.88-2.22,1.72-2.72C803.71,484.42,812.06,479.69,821.23,474.42z"/>
</g>
</svg>
