<?xml version="1.0" standalone="no"?>
<!DOCTYPE svg PUBLIC "-//W3C//DTD SVG 20010904//EN"
 "http://www.w3.org/TR/2001/REC-SVG-20010904/DTD/svg10.dtd">
<svg version="1.0" xmlns="http://www.w3.org/2000/svg"
 width="500.000000pt" height="500.000000pt" viewBox="0 0 500.000000 500.000000"
 preserveAspectRatio="xMidYMid meet">

<g transform="translate(0.000000,500.000000) scale(0.100000,-0.100000)"
fill="#000000" stroke="none">
<path d="M150 4025 c-49 -15 -101 -60 -128 -109 -16 -29 -17 -138 -17 -1411
l0 -1380 24 -42 c29 -51 80 -88 141 -103 32 -8 337 -10 1025 -8 l980 3 47 28
c51 29 78 63 96 116 9 25 12 318 12 1087 l0 1052 -397 391 -398 391 -670 -1
c-543 0 -679 -3 -715 -14z m1720 -460 l285 -285 -248 0 c-206 0 -253 3 -278
16 -53 27 -59 58 -59 319 0 129 3 235 8 235 4 0 135 -128 292 -285z m-870
-159 l215 -124 5 -190 5 -190 162 94 162 94 221 -127 220 -127 0 -247 c0 -185
-3 -249 -12 -257 -7 -6 -107 -64 -221 -130 l-208 -120 -219 127 -219 126 -3
187 -3 187 -155 -89 c-85 -49 -160 -90 -166 -90 -7 0 -107 55 -223 122 l-211
121 2 256 3 256 210 122 c116 67 212 122 215 122 3 1 102 -55 220 -123z m-90
-1486 l82 -90 617 -2 616 -3 3 -315 c3 -339 -1 -375 -45 -409 -26 -21 -32 -21
-1020 -21 l-995 0 -29 29 -29 29 0 436 0 436 359 0 359 0 82 -90z"/>
<path d="M710 3366 c-30 -18 -88 -52 -128 -75 l-74 -43 138 -79 137 -79 133
76 c74 42 134 79 134 83 -1 10 -255 151 -271 150 -8 0 -39 -15 -69 -33z"/>
<path d="M452 2994 l3 -156 95 -55 c52 -30 114 -66 138 -79 l42 -25 0 158 0
159 -133 77 c-74 42 -137 77 -141 77 -3 0 -5 -70 -4 -156z"/>
<path d="M973 3074 l-133 -75 0 -159 0 -159 135 77 134 77 1 158 c0 86 -1 157
-2 157 -2 0 -63 -34 -135 -76z"/>
<path d="M1415 2889 c-66 -39 -123 -74 -128 -78 -4 -4 54 -42 128 -85 l135
-78 135 78 c74 43 131 81 127 85 -15 16 -255 149 -265 149 -7 -1 -66 -33 -132
-71z"/>
<path d="M1220 2553 l0 -158 132 -75 c72 -41 134 -76 137 -78 3 -1 5 69 4 155
l-1 158 -132 78 c-73 42 -134 77 -136 77 -2 0 -4 -71 -4 -157z"/>
<path d="M1735 2631 l-130 -77 -3 -157 c-1 -86 -1 -157 2 -157 2 0 64 35 137
78 l134 78 3 157 c1 86 -1 157 -5 156 -5 0 -66 -35 -138 -78z"/>
<path d="M1068 1640 c-59 -32 -91 -96 -96 -194 -5 -101 9 -156 53 -205 55 -60
128 -75 203 -41 34 16 42 16 42 5 0 -11 11 -15 38 -15 l37 0 0 120 0 120 -92
0 -93 0 0 -40 0 -40 45 0 c25 0 45 -2 45 -5 0 -21 -34 -66 -54 -71 -83 -20
-126 28 -126 143 0 41 6 89 14 108 26 62 89 74 138 25 34 -34 30 -33 81 -19
l38 10 -22 38 c-12 21 -38 48 -59 60 -50 28 -140 28 -192 1z"/>
<path d="M3369 2751 c-46 -15 -69 -31 -84 -61 -13 -24 -15 -90 -15 -413 0
-383 0 -384 23 -418 32 -48 71 -58 232 -58 155 -1 190 9 229 62 19 26 21 45
25 233 l3 204 -131 0 -132 0 3 -57 3 -58 38 -3 37 -3 0 -120 c0 -117 0 -120
-24 -129 -24 -9 -109 -5 -127 6 -11 7 -12 664 0 682 5 9 28 12 77 10 l69 -3 3
-77 3 -78 91 0 91 0 -5 93 c-9 169 -35 191 -243 194 -77 1 -152 -2 -166 -6z"/>
<path d="M4470 2280 l0 -481 219 3 c330 5 311 -25 311 478 0 402 -1 409 -63
454 -26 19 -45 21 -248 24 l-219 4 0 -482z m348 -2 l2 -347 -43 -6 c-24 -4
-64 -5 -88 -3 l-44 4 -3 352 -2 353 87 -3 88 -3 3 -347z"/>
<path d="M3939 2517 c-45 -30 -58 -71 -58 -189 -1 -175 28 -208 189 -218 l95
-5 0 -90 0 -90 -43 -3 c-55 -4 -72 10 -72 59 l0 39 -81 0 -81 0 4 -74 c6 -121
43 -146 220 -146 186 0 220 29 226 196 7 188 -22 224 -188 234 l-95 5 0 90 0
90 49 3 c55 4 66 -5 66 -55 l0 -33 80 0 80 0 0 59 c0 44 -6 66 -23 92 -35 52
-57 59 -203 59 -120 0 -134 -2 -165 -23z"/>
</g>
</svg>
