<?xml version="1.0" encoding="UTF-8" standalone="no"?>
<svg xmlns="http://www.w3.org/2000/svg" width="256" height="256" viewBox="0 0 256 256">
    <style>
        .bg { fill: #4a90e2; }
        .folder { fill: #3a7bd5; }
        .file { fill: #ffffff; }
    </style>
    
    <!-- Background -->
    <rect width="256" height="256" rx="48" class="bg"/>
    
    <!-- Folder -->
    <path d="M64 96 C64 82.7 74.7 72 88 72 H116 C124.8 72 132.5 77.2 136 84 L144 96 H192 C205.3 96 216 106.7 216 120 V184 C216 197.3 205.3 208 192 208 H64 C50.7 208 40 197.3 40 184 V120 C40 106.7 50.7 96 64 96 Z" class="folder"/>
    
    <!-- Files -->
    <rect x="80" y="128" width="40" height="48" rx="8" class="file"/>
    <rect x="136" y="128" width="40" height="48" rx="8" class="file"/>
</svg>
